<?xml version="1.0" encoding="utf-8"?><!-- Uploaded to: SVG Repo, www.svgrepo.com, Generator: SVG Repo Mixer Tools -->
<svg width="800px" height="800px" viewBox="0 0 960 960" fill="none" xmlns="http://www.w3.org/2000/svg">
<path d="M864.189 226.74C858.953 322.858 754.737 374.315 695.538 438.255C587.28 548.523 471.983 651.236 357.786 755.237C336.782 774.521 312.167 786.817 286.061 797.151C218.876 823.397 152.288 851.277 84.9569 877.096C33.4679 887.917 33.5929 837.125 51.9969 803.274C82.4819 737.544 111.888 671.506 134.694 602.632C140.147 588.119 146.394 574.096 158.351 563.118C316.129 418.731 472.524 272.847 629.387 127.473C671.701 84.4735 735.485 58.8855 787.599 101.237C828.067 131.816 858.407 175.705 866.226 226.252C865.547 226.415 864.868 226.577 864.189 226.74ZM577.502 375.208C475.229 474.325 371.382 574.967 267.068 676.062C282.355 693.01 298.422 710.233 316.028 726.33C423.063 629.117 532.768 534.003 635.414 429.155C615.93 411.005 596.96 393.333 577.502 375.208ZM511.033 300.112C405.345 398.52 300.168 496.453 194.564 594.783C208.416 610.826 222.61 627.264 238.338 645.479C342.681 543.636 445.97 442.823 549.75 341.53C536.093 326.92 523.852 313.825 511.033 300.112ZM740.017 332.746C771.509 304.027 835.255 253.663 812.494 206.585C746.706 89.9645 700.949 116.001 619.406 199.264C659.925 244.107 699.781 288.217 740.017 332.746ZM274.408 749.697C240.205 713.159 206.909 677.589 174.655 643.132C159.169 679.946 143.72 716.957 127.99 753.849C124.389 762.296 118.674 770.287 129.712 777.657C134.223 784.437 138.046 793.07 142.584 800.069C186.793 783.177 230.302 766.551 274.408 749.697ZM544.049 269.928C584.723 313.301 624.972 356.22 665.379 399.309C680.179 385.866 693.882 373.42 707.709 360.86C667.185 317.314 626.926 274.051 586.479 230.588C571.828 244.172 558.447 256.578 544.049 269.928Z" fill="#000000"/>
<path d="M638.673 709.515C639.343 676.351 677.174 677.225 692.387 700.363C726.843 744.221 760.844 788.44 794.87 832.637C817.027 858.762 782.4 890.608 758.307 866.545C717.849 825.832 684.536 778.554 648.479 734.013C643.193 727.217 640.425 718.463 636.496 710.613C637.221 710.246 637.947 709.88 638.673 709.515Z" fill="#000000"/>
<path d="M151.066 137.732C153.494 108.423 188.706 102.337 203.647 124.81C235.905 172.013 273.59 216.181 301.895 265.799C313.411 289.311 283.416 311.351 264.894 292.57C231.379 256.708 205.952 213.945 175.929 175.18C165.617 163.929 156.995 151.904 151.066 137.732Z" fill="#000000"/>
<path d="M891.911 614.01C862.482 608.358 833.494 602.751 804.26 596.663C802.393 596.28 800.531 595.828 798.711 595.265C761.812 585.318 773.326 533.411 810.404 541.287C840.924 548.38 871.139 556.895 901.224 565.701C912.077 568.878 919.347 576.915 919.717 589.183C920.689 605.42 906.16 612.951 891.911 614.01Z" fill="#000000"/>
<path d="M149.196 434.169C123.591 424.884 58.974 428.513 68.036 388.304C71.15 376.308 84.587 367.941 98.537 370.701C119.14 374.778 139.766 379.065 159.972 384.727C193.482 395.201 179.49 434.51 149.196 434.169Z" fill="#000000"/>
<path d="M492.843 843.595C492.129 822.836 489.637 787.689 517.329 787.075C530.926 786.658 542.651 796.779 542.97 812.531C541.532 834.435 545.506 868.675 534.546 887.253C523.096 905.866 493.562 897.454 492.893 875.571C492.58 864.936 493.061 854.249 492.896 843.595C492.878 843.594 492.86 843.595 492.843 843.595Z" fill="#000000"/>
<path d="M486.449 126.168C492.884 164.558 451.635 176.738 440.787 145.638C436.983 126.526 434.554 106.662 433.855 87.1565C434.131 56.1805 477.956 53.1725 482.89 83.7265C484.932 97.7525 485.576 112.019 486.967 126.142C486.794 126.151 486.621 126.159 486.449 126.168Z" fill="#000000"/>
<path d="M577.5 375.203C596.958 393.329 615.928 411 635.411 429.15C532.766 533.997 423.06 629.111 316.026 726.324C298.428 710.235 282.345 692.996 267.066 676.056C371.38 574.962 475.228 474.319 577.5 375.203Z" fill="white"/>
<path d="M511.031 300.109C523.849 313.822 536.091 326.917 549.748 341.527C445.968 442.82 342.68 543.633 238.336 645.476C222.608 627.26 208.415 610.823 194.562 594.78C300.166 496.45 405.344 398.517 511.031 300.109Z" fill="white"/>
<path d="M740.018 332.744C699.782 288.215 659.926 244.106 619.406 199.263C701.068 115.89 746.72 90.0456 812.493 206.586C835.234 253.723 771.572 303.932 740.018 332.744Z" fill="#000000"/>
<path d="M274.409 749.697C230.303 766.551 186.794 783.177 142.586 800.07C138.05 793.075 134.222 784.437 129.714 777.657C118.675 770.288 124.39 762.297 127.991 753.85C143.72 716.958 159.169 679.947 174.656 643.133C206.91 677.589 240.207 713.159 274.409 749.697Z" fill="white"/>
<path d="M544.051 269.926C558.449 256.577 571.83 244.17 586.481 230.586C626.928 274.049 667.187 317.312 707.711 360.858C693.884 373.418 680.181 385.864 665.381 399.307C624.974 356.218 584.725 313.298 544.051 269.926Z" fill="white"/>
</svg>